<svg width="10" height="8" viewBox="0 0 10 8" fill="none" xmlns="http://www.w3.org/2000/svg">
<path d="M9.05805 0.707258C8.8325 0.483037 8.56471 0.305168 8.26996 0.183815C7.97521 0.062461 7.65929 0 7.34024 0C7.02119 0 6.70527 0.062461 6.41052 0.183815C6.11577 0.305168 5.84797 0.483037 5.62242 0.707258L5.15433 1.17238L4.68624 0.707258C4.23064 0.254559 3.61273 0.00023465 2.96842 0.000234655C2.32411 0.000234659 1.7062 0.254559 1.2506 0.707258C0.795012 1.15996 0.539063 1.77395 0.539062 2.41416C0.539062 3.05438 0.795012 3.66837 1.2506 4.12107L1.7187 4.58619L5.15433 8L8.58996 4.58619L9.05805 4.12107C9.28371 3.89695 9.46271 3.63086 9.58484 3.33798C9.70697 3.0451 9.76983 2.73119 9.76983 2.41416C9.76983 2.09714 9.70697 1.78322 9.58484 1.49035C9.46271 1.19747 9.28371 0.931374 9.05805 0.707258Z" fill="url(#paint0_linear_2_331)"/>
<defs>
<linearGradient id="paint0_linear_2_331" x1="0.539062" y1="3.73333" x2="9.54854" y2="3.77972" gradientUnits="userSpaceOnUse">
<stop stop-color="#FF7070"/>
<stop offset="1" stop-color="#FF7070" stop-opacity="0.65"/>
</linearGradient>
</defs>
</svg>
